<mxfile host="app.diagrams.net" modified="2024-04-17T06:47:37.630Z" agent="Mozilla/5.0 (Windows NT 10.0; Win64; x64) AppleWebKit/537.36 (KHTML, like Gecko) Chrome/123.0.0.0 Safari/537.36" etag="PMxsV-qsyFpexzqXEr5P" version="24.2.5" type="device">
  <diagram id="R2lEEEUBdFMjLlhIrx00" name="Page-1">
    <mxGraphModel dx="2765" dy="991" grid="1" gridSize="10" guides="1" tooltips="1" connect="1" arrows="1" fold="1" page="1" pageScale="1" pageWidth="850" pageHeight="1100" math="0" shadow="0" extFonts="Permanent Marker^https://fonts.googleapis.com/css?family=Permanent+Marker">
      <root>
        <mxCell id="0" />
        <mxCell id="1" parent="0" />
        <mxCell id="AsFMAXPC-iEJAhvBXa8g-2" value="department" style="rounded=0;whiteSpace=wrap;html=1;" parent="1" vertex="1">
          <mxGeometry x="760" y="241" width="120" height="40" as="geometry" />
        </mxCell>
        <mxCell id="AsFMAXPC-iEJAhvBXa8g-3" value="project_manager" style="rounded=0;whiteSpace=wrap;html=1;" parent="1" vertex="1">
          <mxGeometry x="-41" y="240" width="120" height="40" as="geometry" />
        </mxCell>
        <mxCell id="AsFMAXPC-iEJAhvBXa8g-5" value="admin" style="rounded=0;whiteSpace=wrap;html=1;" parent="1" vertex="1">
          <mxGeometry x="360" y="40" width="120" height="40" as="geometry" />
        </mxCell>
        <mxCell id="AsFMAXPC-iEJAhvBXa8g-12" value="a_id" style="ellipse;whiteSpace=wrap;html=1;" parent="1" vertex="1">
          <mxGeometry x="220" y="80" width="100" height="50" as="geometry" />
        </mxCell>
        <mxCell id="AsFMAXPC-iEJAhvBXa8g-13" value="u_name" style="ellipse;whiteSpace=wrap;html=1;" parent="1" vertex="1">
          <mxGeometry x="240" y="145" width="100" height="50" as="geometry" />
        </mxCell>
        <mxCell id="AsFMAXPC-iEJAhvBXa8g-14" value="password" style="ellipse;whiteSpace=wrap;html=1;" parent="1" vertex="1">
          <mxGeometry x="430" y="200" width="100" height="50" as="geometry" />
        </mxCell>
        <mxCell id="AsFMAXPC-iEJAhvBXa8g-15" value="address" style="ellipse;whiteSpace=wrap;html=1;" parent="1" vertex="1">
          <mxGeometry x="520" y="80" width="100" height="50" as="geometry" />
        </mxCell>
        <mxCell id="AsFMAXPC-iEJAhvBXa8g-16" value="cont_no" style="ellipse;whiteSpace=wrap;html=1;" parent="1" vertex="1">
          <mxGeometry x="310" y="200" width="100" height="50" as="geometry" />
        </mxCell>
        <mxCell id="AsFMAXPC-iEJAhvBXa8g-17" value="email" style="ellipse;whiteSpace=wrap;html=1;" parent="1" vertex="1">
          <mxGeometry x="500" y="145" width="100" height="50" as="geometry" />
        </mxCell>
        <mxCell id="AsFMAXPC-iEJAhvBXa8g-19" value="" style="endArrow=none;html=1;rounded=0;entryX=0.5;entryY=1;entryDx=0;entryDy=0;exitX=1;exitY=0.5;exitDx=0;exitDy=0;" parent="1" source="AsFMAXPC-iEJAhvBXa8g-12" target="AsFMAXPC-iEJAhvBXa8g-5" edge="1">
          <mxGeometry width="50" height="50" relative="1" as="geometry">
            <mxPoint x="380" y="350" as="sourcePoint" />
            <mxPoint x="430" y="300" as="targetPoint" />
          </mxGeometry>
        </mxCell>
        <mxCell id="AsFMAXPC-iEJAhvBXa8g-20" value="" style="endArrow=none;html=1;rounded=0;entryX=0.5;entryY=1;entryDx=0;entryDy=0;exitX=0.5;exitY=0;exitDx=0;exitDy=0;" parent="1" source="AsFMAXPC-iEJAhvBXa8g-16" target="AsFMAXPC-iEJAhvBXa8g-5" edge="1">
          <mxGeometry width="50" height="50" relative="1" as="geometry">
            <mxPoint x="330" y="115" as="sourcePoint" />
            <mxPoint x="370" y="90" as="targetPoint" />
          </mxGeometry>
        </mxCell>
        <mxCell id="AsFMAXPC-iEJAhvBXa8g-21" value="" style="endArrow=none;html=1;rounded=0;entryX=0.5;entryY=1;entryDx=0;entryDy=0;exitX=0.5;exitY=0;exitDx=0;exitDy=0;" parent="1" source="AsFMAXPC-iEJAhvBXa8g-14" target="AsFMAXPC-iEJAhvBXa8g-5" edge="1">
          <mxGeometry width="50" height="50" relative="1" as="geometry">
            <mxPoint x="340" y="125" as="sourcePoint" />
            <mxPoint x="380" y="100" as="targetPoint" />
          </mxGeometry>
        </mxCell>
        <mxCell id="AsFMAXPC-iEJAhvBXa8g-22" value="" style="endArrow=none;html=1;rounded=0;entryX=0.5;entryY=1;entryDx=0;entryDy=0;exitX=1;exitY=0;exitDx=0;exitDy=0;" parent="1" source="AsFMAXPC-iEJAhvBXa8g-13" target="AsFMAXPC-iEJAhvBXa8g-5" edge="1">
          <mxGeometry width="50" height="50" relative="1" as="geometry">
            <mxPoint x="350" y="135" as="sourcePoint" />
            <mxPoint x="390" y="110" as="targetPoint" />
          </mxGeometry>
        </mxCell>
        <mxCell id="AsFMAXPC-iEJAhvBXa8g-23" value="" style="endArrow=none;html=1;rounded=0;entryX=0.5;entryY=1;entryDx=0;entryDy=0;exitX=0;exitY=0;exitDx=0;exitDy=0;" parent="1" source="AsFMAXPC-iEJAhvBXa8g-17" target="AsFMAXPC-iEJAhvBXa8g-5" edge="1">
          <mxGeometry width="50" height="50" relative="1" as="geometry">
            <mxPoint x="490" y="210" as="sourcePoint" />
            <mxPoint x="460" y="90" as="targetPoint" />
          </mxGeometry>
        </mxCell>
        <mxCell id="AsFMAXPC-iEJAhvBXa8g-24" value="" style="endArrow=none;html=1;rounded=0;entryX=0.5;entryY=1;entryDx=0;entryDy=0;exitX=0;exitY=0.5;exitDx=0;exitDy=0;" parent="1" source="AsFMAXPC-iEJAhvBXa8g-15" target="AsFMAXPC-iEJAhvBXa8g-5" edge="1">
          <mxGeometry width="50" height="50" relative="1" as="geometry">
            <mxPoint x="500" y="220" as="sourcePoint" />
            <mxPoint x="470" y="100" as="targetPoint" />
          </mxGeometry>
        </mxCell>
        <mxCell id="AsFMAXPC-iEJAhvBXa8g-25" value="pm_id" style="ellipse;whiteSpace=wrap;html=1;" parent="1" vertex="1">
          <mxGeometry x="-131" y="320" width="100" height="50" as="geometry" />
        </mxCell>
        <mxCell id="AsFMAXPC-iEJAhvBXa8g-26" value="pm_pass" style="ellipse;whiteSpace=wrap;html=1;" parent="1" vertex="1">
          <mxGeometry x="69" y="320" width="100" height="50" as="geometry" />
        </mxCell>
        <mxCell id="AsFMAXPC-iEJAhvBXa8g-28" value="pm_uname" style="ellipse;whiteSpace=wrap;html=1;" parent="1" vertex="1">
          <mxGeometry x="-31" y="360" width="100" height="50" as="geometry" />
        </mxCell>
        <mxCell id="AsFMAXPC-iEJAhvBXa8g-29" value="" style="endArrow=none;html=1;rounded=0;entryX=1;entryY=0;entryDx=0;entryDy=0;exitX=0.5;exitY=1;exitDx=0;exitDy=0;" parent="1" source="AsFMAXPC-iEJAhvBXa8g-3" target="AsFMAXPC-iEJAhvBXa8g-25" edge="1">
          <mxGeometry width="50" height="50" relative="1" as="geometry">
            <mxPoint x="249" y="155" as="sourcePoint" />
            <mxPoint x="349" y="130" as="targetPoint" />
          </mxGeometry>
        </mxCell>
        <mxCell id="AsFMAXPC-iEJAhvBXa8g-30" value="" style="endArrow=none;html=1;rounded=0;entryX=0.5;entryY=0;entryDx=0;entryDy=0;exitX=0.5;exitY=1;exitDx=0;exitDy=0;" parent="1" source="AsFMAXPC-iEJAhvBXa8g-3" target="AsFMAXPC-iEJAhvBXa8g-28" edge="1">
          <mxGeometry width="50" height="50" relative="1" as="geometry">
            <mxPoint x="259" y="165" as="sourcePoint" />
            <mxPoint x="359" y="140" as="targetPoint" />
          </mxGeometry>
        </mxCell>
        <mxCell id="AsFMAXPC-iEJAhvBXa8g-31" value="" style="endArrow=none;html=1;rounded=0;entryX=0;entryY=0;entryDx=0;entryDy=0;exitX=0.5;exitY=1;exitDx=0;exitDy=0;" parent="1" source="AsFMAXPC-iEJAhvBXa8g-3" target="AsFMAXPC-iEJAhvBXa8g-26" edge="1">
          <mxGeometry width="50" height="50" relative="1" as="geometry">
            <mxPoint x="49" y="310" as="sourcePoint" />
            <mxPoint x="369" y="150" as="targetPoint" />
          </mxGeometry>
        </mxCell>
        <mxCell id="AsFMAXPC-iEJAhvBXa8g-43" value="task" style="rounded=0;whiteSpace=wrap;html=1;" parent="1" vertex="1">
          <mxGeometry x="10" y="437" width="120" height="40" as="geometry" />
        </mxCell>
        <mxCell id="AsFMAXPC-iEJAhvBXa8g-44" value="t_id" style="ellipse;whiteSpace=wrap;html=1;" parent="1" vertex="1">
          <mxGeometry x="-130" y="477" width="100" height="50" as="geometry" />
        </mxCell>
        <mxCell id="AsFMAXPC-iEJAhvBXa8g-45" value="t_title" style="ellipse;whiteSpace=wrap;html=1;" parent="1" vertex="1">
          <mxGeometry x="-80" y="528" width="100" height="50" as="geometry" />
        </mxCell>
        <mxCell id="AsFMAXPC-iEJAhvBXa8g-46" value="finish_date" style="ellipse;whiteSpace=wrap;html=1;" parent="1" vertex="1">
          <mxGeometry x="110" y="525" width="100" height="50" as="geometry" />
        </mxCell>
        <mxCell id="AsFMAXPC-iEJAhvBXa8g-47" value="status" style="ellipse;whiteSpace=wrap;html=1;" parent="1" vertex="1">
          <mxGeometry x="162" y="477" width="100" height="50" as="geometry" />
        </mxCell>
        <mxCell id="AsFMAXPC-iEJAhvBXa8g-48" value="assign_date" style="ellipse;whiteSpace=wrap;html=1;" parent="1" vertex="1">
          <mxGeometry x="20" y="550" width="100" height="50" as="geometry" />
        </mxCell>
        <mxCell id="AsFMAXPC-iEJAhvBXa8g-50" value="" style="endArrow=none;html=1;rounded=0;entryX=0.5;entryY=1;entryDx=0;entryDy=0;exitX=1;exitY=0.5;exitDx=0;exitDy=0;" parent="1" source="AsFMAXPC-iEJAhvBXa8g-44" target="AsFMAXPC-iEJAhvBXa8g-43" edge="1">
          <mxGeometry width="50" height="50" relative="1" as="geometry">
            <mxPoint x="30" y="747" as="sourcePoint" />
            <mxPoint x="80" y="697" as="targetPoint" />
          </mxGeometry>
        </mxCell>
        <mxCell id="AsFMAXPC-iEJAhvBXa8g-51" value="" style="endArrow=none;html=1;rounded=0;entryX=0.5;entryY=1;entryDx=0;entryDy=0;exitX=0.5;exitY=0;exitDx=0;exitDy=0;" parent="1" source="AsFMAXPC-iEJAhvBXa8g-48" target="AsFMAXPC-iEJAhvBXa8g-43" edge="1">
          <mxGeometry width="50" height="50" relative="1" as="geometry">
            <mxPoint x="-20" y="512" as="sourcePoint" />
            <mxPoint x="20" y="487" as="targetPoint" />
          </mxGeometry>
        </mxCell>
        <mxCell id="AsFMAXPC-iEJAhvBXa8g-52" value="" style="endArrow=none;html=1;rounded=0;entryX=0.5;entryY=1;entryDx=0;entryDy=0;exitX=0.5;exitY=0;exitDx=0;exitDy=0;" parent="1" source="AsFMAXPC-iEJAhvBXa8g-46" target="AsFMAXPC-iEJAhvBXa8g-43" edge="1">
          <mxGeometry width="50" height="50" relative="1" as="geometry">
            <mxPoint x="-10" y="522" as="sourcePoint" />
            <mxPoint x="30" y="497" as="targetPoint" />
          </mxGeometry>
        </mxCell>
        <mxCell id="AsFMAXPC-iEJAhvBXa8g-53" value="" style="endArrow=none;html=1;rounded=0;entryX=0.5;entryY=1;entryDx=0;entryDy=0;exitX=1;exitY=0;exitDx=0;exitDy=0;" parent="1" source="AsFMAXPC-iEJAhvBXa8g-45" target="AsFMAXPC-iEJAhvBXa8g-43" edge="1">
          <mxGeometry width="50" height="50" relative="1" as="geometry">
            <mxPoint y="532" as="sourcePoint" />
            <mxPoint x="40" y="507" as="targetPoint" />
          </mxGeometry>
        </mxCell>
        <mxCell id="AsFMAXPC-iEJAhvBXa8g-55" value="" style="endArrow=none;html=1;rounded=0;entryX=0.5;entryY=1;entryDx=0;entryDy=0;exitX=0;exitY=0.5;exitDx=0;exitDy=0;" parent="1" source="AsFMAXPC-iEJAhvBXa8g-47" target="AsFMAXPC-iEJAhvBXa8g-43" edge="1">
          <mxGeometry width="50" height="50" relative="1" as="geometry">
            <mxPoint x="150" y="617" as="sourcePoint" />
            <mxPoint x="120" y="497" as="targetPoint" />
          </mxGeometry>
        </mxCell>
        <mxCell id="AsFMAXPC-iEJAhvBXa8g-56" value="leave" style="rounded=0;whiteSpace=wrap;html=1;" parent="1" vertex="1">
          <mxGeometry x="397" y="760" width="123" height="40" as="geometry" />
        </mxCell>
        <mxCell id="AsFMAXPC-iEJAhvBXa8g-57" value="lv_id" style="ellipse;whiteSpace=wrap;html=1;" parent="1" vertex="1">
          <mxGeometry x="301" y="810" width="109" height="50" as="geometry" />
        </mxCell>
        <mxCell id="AsFMAXPC-iEJAhvBXa8g-58" value="status" style="ellipse;whiteSpace=wrap;html=1;" parent="1" vertex="1">
          <mxGeometry x="511" y="810" width="109" height="50" as="geometry" />
        </mxCell>
        <mxCell id="AsFMAXPC-iEJAhvBXa8g-59" value="reason" style="ellipse;whiteSpace=wrap;html=1;" parent="1" vertex="1">
          <mxGeometry x="340" y="860" width="109" height="50" as="geometry" />
        </mxCell>
        <mxCell id="AsFMAXPC-iEJAhvBXa8g-60" value="" style="endArrow=none;html=1;rounded=0;entryX=1;entryY=0;entryDx=0;entryDy=0;exitX=0.5;exitY=1;exitDx=0;exitDy=0;" parent="1" source="AsFMAXPC-iEJAhvBXa8g-56" target="AsFMAXPC-iEJAhvBXa8g-57" edge="1">
          <mxGeometry width="50" height="50" relative="1" as="geometry">
            <mxPoint x="687" y="675" as="sourcePoint" />
            <mxPoint x="787" y="650" as="targetPoint" />
          </mxGeometry>
        </mxCell>
        <mxCell id="AsFMAXPC-iEJAhvBXa8g-61" value="" style="endArrow=none;html=1;rounded=0;entryX=0.5;entryY=0;entryDx=0;entryDy=0;exitX=0.5;exitY=1;exitDx=0;exitDy=0;" parent="1" source="AsFMAXPC-iEJAhvBXa8g-56" target="AsFMAXPC-iEJAhvBXa8g-59" edge="1">
          <mxGeometry width="50" height="50" relative="1" as="geometry">
            <mxPoint x="697" y="685" as="sourcePoint" />
            <mxPoint x="797" y="660" as="targetPoint" />
          </mxGeometry>
        </mxCell>
        <mxCell id="AsFMAXPC-iEJAhvBXa8g-62" value="" style="endArrow=none;html=1;rounded=0;entryX=0;entryY=0;entryDx=0;entryDy=0;exitX=0.5;exitY=1;exitDx=0;exitDy=0;" parent="1" source="AsFMAXPC-iEJAhvBXa8g-56" target="AsFMAXPC-iEJAhvBXa8g-58" edge="1">
          <mxGeometry width="50" height="50" relative="1" as="geometry">
            <mxPoint x="487" y="830" as="sourcePoint" />
            <mxPoint x="807" y="670" as="targetPoint" />
          </mxGeometry>
        </mxCell>
        <mxCell id="AsFMAXPC-iEJAhvBXa8g-76" value="&lt;u&gt;dep_id&lt;/u&gt;" style="ellipse;whiteSpace=wrap;html=1;" parent="1" vertex="1">
          <mxGeometry x="701" y="352" width="109" height="50" as="geometry" />
        </mxCell>
        <mxCell id="AsFMAXPC-iEJAhvBXa8g-78" value="" style="endArrow=none;html=1;rounded=0;exitX=0.5;exitY=1;exitDx=0;exitDy=0;entryX=0.5;entryY=0;entryDx=0;entryDy=0;" parent="1" source="AsFMAXPC-iEJAhvBXa8g-2" target="AsFMAXPC-iEJAhvBXa8g-76" edge="1">
          <mxGeometry width="50" height="50" relative="1" as="geometry">
            <mxPoint x="829" y="291" as="sourcePoint" />
            <mxPoint x="770" y="341" as="targetPoint" />
          </mxGeometry>
        </mxCell>
        <mxCell id="AsFMAXPC-iEJAhvBXa8g-80" value="dep_name" style="ellipse;whiteSpace=wrap;html=1;" parent="1" vertex="1">
          <mxGeometry x="830" y="351" width="109" height="50" as="geometry" />
        </mxCell>
        <mxCell id="AsFMAXPC-iEJAhvBXa8g-81" value="" style="endArrow=none;html=1;rounded=0;exitX=0.5;exitY=1;exitDx=0;exitDy=0;entryX=0.5;entryY=0;entryDx=0;entryDy=0;" parent="1" source="AsFMAXPC-iEJAhvBXa8g-2" target="AsFMAXPC-iEJAhvBXa8g-80" edge="1">
          <mxGeometry width="50" height="50" relative="1" as="geometry">
            <mxPoint x="829" y="291" as="sourcePoint" />
            <mxPoint x="860" y="341" as="targetPoint" />
          </mxGeometry>
        </mxCell>
        <mxCell id="AsFMAXPC-iEJAhvBXa8g-82" value="human_resource" style="rounded=0;whiteSpace=wrap;html=1;" parent="1" vertex="1">
          <mxGeometry x="759" y="40" width="121" height="40" as="geometry" />
        </mxCell>
        <mxCell id="AsFMAXPC-iEJAhvBXa8g-83" value="hr_id" style="ellipse;whiteSpace=wrap;html=1;" parent="1" vertex="1">
          <mxGeometry x="673" y="115" width="109" height="50" as="geometry" />
        </mxCell>
        <mxCell id="AsFMAXPC-iEJAhvBXa8g-84" value="hr_pass" style="ellipse;whiteSpace=wrap;html=1;" parent="1" vertex="1">
          <mxGeometry x="860" y="115" width="109" height="50" as="geometry" />
        </mxCell>
        <mxCell id="AsFMAXPC-iEJAhvBXa8g-86" value="" style="endArrow=none;html=1;rounded=0;entryX=1;entryY=0;entryDx=0;entryDy=0;exitX=0.5;exitY=1;exitDx=0;exitDy=0;" parent="1" source="AsFMAXPC-iEJAhvBXa8g-82" target="AsFMAXPC-iEJAhvBXa8g-83" edge="1">
          <mxGeometry width="50" height="50" relative="1" as="geometry">
            <mxPoint x="1033" y="595" as="sourcePoint" />
            <mxPoint x="1133" y="570" as="targetPoint" />
          </mxGeometry>
        </mxCell>
        <mxCell id="AsFMAXPC-iEJAhvBXa8g-87" value="" style="endArrow=none;html=1;rounded=0;entryX=0.5;entryY=0;entryDx=0;entryDy=0;exitX=0.5;exitY=1;exitDx=0;exitDy=0;" parent="1" source="AsFMAXPC-iEJAhvBXa8g-82" target="AsFMAXPC-iEJAhvBXa8g-85" edge="1">
          <mxGeometry width="50" height="50" relative="1" as="geometry">
            <mxPoint x="1043" y="605" as="sourcePoint" />
            <mxPoint x="1143" y="580" as="targetPoint" />
          </mxGeometry>
        </mxCell>
        <mxCell id="AsFMAXPC-iEJAhvBXa8g-88" value="" style="endArrow=none;html=1;rounded=0;entryX=0;entryY=0;entryDx=0;entryDy=0;exitX=0.5;exitY=1;exitDx=0;exitDy=0;" parent="1" source="AsFMAXPC-iEJAhvBXa8g-82" target="AsFMAXPC-iEJAhvBXa8g-84" edge="1">
          <mxGeometry width="50" height="50" relative="1" as="geometry">
            <mxPoint x="833" y="750" as="sourcePoint" />
            <mxPoint x="1153" y="590" as="targetPoint" />
          </mxGeometry>
        </mxCell>
        <mxCell id="AsFMAXPC-iEJAhvBXa8g-89" value="manages" style="rhombus;whiteSpace=wrap;html=1;" parent="1" vertex="1">
          <mxGeometry x="380" y="270" width="80" height="80" as="geometry" />
        </mxCell>
        <mxCell id="AsFMAXPC-iEJAhvBXa8g-97" value="" style="endArrow=classic;html=1;rounded=0;entryX=0.5;entryY=1;entryDx=0;entryDy=0;exitX=0.5;exitY=0;exitDx=0;exitDy=0;" parent="1" source="AsFMAXPC-iEJAhvBXa8g-89" target="AsFMAXPC-iEJAhvBXa8g-5" edge="1">
          <mxGeometry width="50" height="50" relative="1" as="geometry">
            <mxPoint x="500" y="450" as="sourcePoint" />
            <mxPoint x="550" y="400" as="targetPoint" />
          </mxGeometry>
        </mxCell>
        <mxCell id="AsFMAXPC-iEJAhvBXa8g-98" value="" style="endArrow=none;html=1;rounded=0;entryX=1;entryY=0.5;entryDx=0;entryDy=0;exitX=0;exitY=0.5;exitDx=0;exitDy=0;" parent="1" source="AsFMAXPC-iEJAhvBXa8g-2" target="AsFMAXPC-iEJAhvBXa8g-89" edge="1">
          <mxGeometry width="50" height="50" relative="1" as="geometry">
            <mxPoint x="800" y="310" as="sourcePoint" />
            <mxPoint x="550" y="400" as="targetPoint" />
            <Array as="points">
              <mxPoint x="720" y="261" />
              <mxPoint x="720" y="310" />
            </Array>
          </mxGeometry>
        </mxCell>
        <mxCell id="AsFMAXPC-iEJAhvBXa8g-99" value="" style="endArrow=none;html=1;rounded=0;entryX=0.5;entryY=1;entryDx=0;entryDy=0;exitX=0.504;exitY=0;exitDx=0;exitDy=0;exitPerimeter=0;jumpStyle=arc;jumpSize=8;" parent="1" source="AsFMAXPC-iEJAhvBXa8g-82" target="AsFMAXPC-iEJAhvBXa8g-89" edge="1">
          <mxGeometry width="50" height="50" relative="1" as="geometry">
            <mxPoint x="550" y="350" as="sourcePoint" />
            <mxPoint x="470" y="320" as="targetPoint" />
            <Array as="points">
              <mxPoint x="820" y="20" />
              <mxPoint x="640" y="20" />
              <mxPoint x="640" y="360" />
              <mxPoint x="540" y="360" />
              <mxPoint x="420" y="360" />
            </Array>
          </mxGeometry>
        </mxCell>
        <mxCell id="AsFMAXPC-iEJAhvBXa8g-100" value="has" style="rhombus;whiteSpace=wrap;html=1;" parent="1" vertex="1">
          <mxGeometry x="699" y="430" width="80" height="80" as="geometry" />
        </mxCell>
        <mxCell id="AsFMAXPC-iEJAhvBXa8g-101" value="" style="endArrow=classic;html=1;rounded=0;exitX=0.5;exitY=0;exitDx=0;exitDy=0;entryX=1;entryY=0.5;entryDx=0;entryDy=0;" parent="1" source="AsFMAXPC-iEJAhvBXa8g-100" target="AsFMAXPC-iEJAhvBXa8g-2" edge="1">
          <mxGeometry width="50" height="50" relative="1" as="geometry">
            <mxPoint x="810" y="421" as="sourcePoint" />
            <mxPoint x="820" y="281" as="targetPoint" />
            <Array as="points">
              <mxPoint x="739" y="411" />
              <mxPoint x="890" y="411" />
              <mxPoint x="960" y="411" />
              <mxPoint x="960" y="261" />
            </Array>
          </mxGeometry>
        </mxCell>
        <mxCell id="AsFMAXPC-iEJAhvBXa8g-102" value="" style="endArrow=none;html=1;rounded=0;entryX=0.5;entryY=1;entryDx=0;entryDy=0;exitX=1;exitY=0.5;exitDx=0;exitDy=0;jumpSize=8;jumpStyle=arc;" parent="1" source="AsFMAXPC-iEJAhvBXa8g-82" target="AsFMAXPC-iEJAhvBXa8g-100" edge="1">
          <mxGeometry width="50" height="50" relative="1" as="geometry">
            <mxPoint x="800" y="670" as="sourcePoint" />
            <mxPoint x="860" y="660" as="targetPoint" />
            <Array as="points">
              <mxPoint x="980" y="60" />
              <mxPoint x="980" y="420" />
              <mxPoint x="870" y="420" />
              <mxPoint x="790" y="420" />
              <mxPoint x="790" y="470" />
              <mxPoint x="790" y="520" />
              <mxPoint x="739" y="520" />
            </Array>
          </mxGeometry>
        </mxCell>
        <mxCell id="AsFMAXPC-iEJAhvBXa8g-103" value="manages" style="rhombus;whiteSpace=wrap;html=1;" parent="1" vertex="1">
          <mxGeometry x="140" y="250" width="80" height="80" as="geometry" />
        </mxCell>
        <mxCell id="AsFMAXPC-iEJAhvBXa8g-107" value="" style="endArrow=classic;html=1;rounded=0;entryX=1;entryY=0.5;entryDx=0;entryDy=0;exitX=0;exitY=0.5;exitDx=0;exitDy=0;" parent="1" target="AsFMAXPC-iEJAhvBXa8g-3" edge="1" source="AsFMAXPC-iEJAhvBXa8g-103">
          <mxGeometry width="50" height="50" relative="1" as="geometry">
            <mxPoint x="140" y="260" as="sourcePoint" />
            <mxPoint x="83" y="259" as="targetPoint" />
            <Array as="points">
              <mxPoint x="120" y="290" />
              <mxPoint x="120" y="260" />
            </Array>
          </mxGeometry>
        </mxCell>
        <mxCell id="AsFMAXPC-iEJAhvBXa8g-108" value="" style="endArrow=none;html=1;rounded=0;exitX=0.5;exitY=1;exitDx=0;exitDy=0;entryX=0.5;entryY=0;entryDx=0;entryDy=0;" parent="1" source="AsFMAXPC-iEJAhvBXa8g-103" target="AsFMAXPC-iEJAhvBXa8g-43" edge="1">
          <mxGeometry width="50" height="50" relative="1" as="geometry">
            <mxPoint x="29" y="290" as="sourcePoint" />
            <mxPoint x="90" y="400" as="targetPoint" />
            <Array as="points">
              <mxPoint x="180" y="420" />
              <mxPoint x="100" y="420" />
              <mxPoint x="70" y="420" />
            </Array>
          </mxGeometry>
        </mxCell>
        <mxCell id="AsFMAXPC-iEJAhvBXa8g-116" value="employee" style="rounded=0;whiteSpace=wrap;html=1;" parent="1" vertex="1">
          <mxGeometry x="38.5" y="680" width="123" height="40" as="geometry" />
        </mxCell>
        <mxCell id="AsFMAXPC-iEJAhvBXa8g-117" value="emp_id" style="ellipse;whiteSpace=wrap;html=1;" parent="1" vertex="1">
          <mxGeometry x="-40" y="750" width="109" height="50" as="geometry" />
        </mxCell>
        <mxCell id="AsFMAXPC-iEJAhvBXa8g-118" value="emp_pass" style="ellipse;whiteSpace=wrap;html=1;" parent="1" vertex="1">
          <mxGeometry x="131" y="750" width="109" height="50" as="geometry" />
        </mxCell>
        <mxCell id="AsFMAXPC-iEJAhvBXa8g-119" value="emp_uname" style="ellipse;whiteSpace=wrap;html=1;" parent="1" vertex="1">
          <mxGeometry x="45.5" y="795" width="109" height="50" as="geometry" />
        </mxCell>
        <mxCell id="AsFMAXPC-iEJAhvBXa8g-120" value="" style="endArrow=none;html=1;rounded=0;entryX=1;entryY=0;entryDx=0;entryDy=0;exitX=0.5;exitY=1;exitDx=0;exitDy=0;" parent="1" source="AsFMAXPC-iEJAhvBXa8g-116" target="AsFMAXPC-iEJAhvBXa8g-117" edge="1">
          <mxGeometry width="50" height="50" relative="1" as="geometry">
            <mxPoint x="328.5" y="595" as="sourcePoint" />
            <mxPoint x="428.5" y="570" as="targetPoint" />
          </mxGeometry>
        </mxCell>
        <mxCell id="AsFMAXPC-iEJAhvBXa8g-121" value="" style="endArrow=none;html=1;rounded=0;entryX=0.5;entryY=0;entryDx=0;entryDy=0;exitX=0.5;exitY=1;exitDx=0;exitDy=0;" parent="1" source="AsFMAXPC-iEJAhvBXa8g-116" target="AsFMAXPC-iEJAhvBXa8g-119" edge="1">
          <mxGeometry width="50" height="50" relative="1" as="geometry">
            <mxPoint x="338.5" y="605" as="sourcePoint" />
            <mxPoint x="438.5" y="580" as="targetPoint" />
          </mxGeometry>
        </mxCell>
        <mxCell id="AsFMAXPC-iEJAhvBXa8g-122" value="" style="endArrow=none;html=1;rounded=0;entryX=0;entryY=0;entryDx=0;entryDy=0;exitX=0.5;exitY=1;exitDx=0;exitDy=0;" parent="1" source="AsFMAXPC-iEJAhvBXa8g-116" target="AsFMAXPC-iEJAhvBXa8g-118" edge="1">
          <mxGeometry width="50" height="50" relative="1" as="geometry">
            <mxPoint x="128.5" y="750" as="sourcePoint" />
            <mxPoint x="448.5" y="590" as="targetPoint" />
          </mxGeometry>
        </mxCell>
        <mxCell id="AsFMAXPC-iEJAhvBXa8g-123" value="works on" style="rhombus;whiteSpace=wrap;html=1;" parent="1" vertex="1">
          <mxGeometry x="280" y="660" width="80" height="80" as="geometry" />
        </mxCell>
        <mxCell id="AsFMAXPC-iEJAhvBXa8g-124" value="" style="endArrow=none;html=1;rounded=0;entryX=1;entryY=0.5;entryDx=0;entryDy=0;exitX=0;exitY=0.5;exitDx=0;exitDy=0;" parent="1" source="AsFMAXPC-iEJAhvBXa8g-123" target="AsFMAXPC-iEJAhvBXa8g-116" edge="1">
          <mxGeometry width="50" height="50" relative="1" as="geometry">
            <mxPoint x="110" y="730" as="sourcePoint" />
            <mxPoint x="110" y="820" as="targetPoint" />
          </mxGeometry>
        </mxCell>
        <mxCell id="AsFMAXPC-iEJAhvBXa8g-125" value="" style="endArrow=none;html=1;rounded=0;exitX=0.5;exitY=0;exitDx=0;exitDy=0;entryX=1;entryY=0.5;entryDx=0;entryDy=0;" parent="1" source="AsFMAXPC-iEJAhvBXa8g-123" target="AsFMAXPC-iEJAhvBXa8g-43" edge="1">
          <mxGeometry width="50" height="50" relative="1" as="geometry">
            <mxPoint x="120" y="740" as="sourcePoint" />
            <mxPoint x="320" y="460" as="targetPoint" />
            <Array as="points">
              <mxPoint x="320" y="600" />
              <mxPoint x="330" y="600" />
              <mxPoint x="330" y="457" />
            </Array>
          </mxGeometry>
        </mxCell>
        <mxCell id="AsFMAXPC-iEJAhvBXa8g-126" value="apply_leave" style="rhombus;whiteSpace=wrap;html=1;" parent="1" vertex="1">
          <mxGeometry x="418.5" y="660" width="80" height="80" as="geometry" />
        </mxCell>
        <mxCell id="AsFMAXPC-iEJAhvBXa8g-127" value="" style="endArrow=none;html=1;rounded=0;entryX=1;entryY=0.75;entryDx=0;entryDy=0;exitX=0.5;exitY=0;exitDx=0;exitDy=0;jumpStyle=arc;jumpSize=8;" parent="1" source="AsFMAXPC-iEJAhvBXa8g-126" target="AsFMAXPC-iEJAhvBXa8g-116" edge="1">
          <mxGeometry width="50" height="50" relative="1" as="geometry">
            <mxPoint x="460" y="640" as="sourcePoint" />
            <mxPoint x="172" y="710" as="targetPoint" />
            <Array as="points">
              <mxPoint x="459" y="640" />
              <mxPoint x="260" y="640" />
              <mxPoint x="260" y="680" />
              <mxPoint x="260" y="710" />
            </Array>
          </mxGeometry>
        </mxCell>
        <mxCell id="AsFMAXPC-iEJAhvBXa8g-128" value="" style="endArrow=none;html=1;rounded=0;entryX=0.5;entryY=0;entryDx=0;entryDy=0;exitX=0.5;exitY=1;exitDx=0;exitDy=0;" parent="1" source="AsFMAXPC-iEJAhvBXa8g-126" target="AsFMAXPC-iEJAhvBXa8g-56" edge="1">
          <mxGeometry width="50" height="50" relative="1" as="geometry">
            <mxPoint x="110" y="730" as="sourcePoint" />
            <mxPoint x="110" y="820" as="targetPoint" />
          </mxGeometry>
        </mxCell>
        <mxCell id="AsFMAXPC-iEJAhvBXa8g-129" value="manages" style="rhombus;whiteSpace=wrap;html=1;" parent="1" vertex="1">
          <mxGeometry x="560" y="670" width="80" height="80" as="geometry" />
        </mxCell>
        <mxCell id="AsFMAXPC-iEJAhvBXa8g-130" value="" style="endArrow=classic;html=1;rounded=0;exitX=1;exitY=0.5;exitDx=0;exitDy=0;entryX=0;entryY=0.5;entryDx=0;entryDy=0;jumpStyle=arc;jumpSize=8;" parent="1" source="AsFMAXPC-iEJAhvBXa8g-129" target="AsFMAXPC-iEJAhvBXa8g-82" edge="1">
          <mxGeometry width="50" height="50" relative="1" as="geometry">
            <mxPoint x="870" y="588" as="sourcePoint" />
            <mxPoint x="930" y="430" as="targetPoint" />
            <Array as="points">
              <mxPoint x="660" y="710" />
              <mxPoint x="660" y="550" />
              <mxPoint x="450" y="550" />
              <mxPoint x="350" y="550" />
              <mxPoint x="350" y="370" />
              <mxPoint x="630" y="370" />
              <mxPoint x="630" y="60" />
            </Array>
          </mxGeometry>
        </mxCell>
        <mxCell id="AsFMAXPC-iEJAhvBXa8g-131" value="salary" style="rounded=0;whiteSpace=wrap;html=1;" parent="1" vertex="1">
          <mxGeometry x="760" y="560" width="121" height="40" as="geometry" />
        </mxCell>
        <mxCell id="AsFMAXPC-iEJAhvBXa8g-132" value="sal_id" style="ellipse;whiteSpace=wrap;html=1;" parent="1" vertex="1">
          <mxGeometry x="670" y="620" width="109" height="50" as="geometry" />
        </mxCell>
        <mxCell id="AsFMAXPC-iEJAhvBXa8g-133" value="total" style="ellipse;whiteSpace=wrap;html=1;" parent="1" vertex="1">
          <mxGeometry x="874" y="620" width="109" height="50" as="geometry" />
        </mxCell>
        <mxCell id="AsFMAXPC-iEJAhvBXa8g-134" value="base" style="ellipse;whiteSpace=wrap;html=1;" parent="1" vertex="1">
          <mxGeometry x="710" y="675" width="109" height="50" as="geometry" />
        </mxCell>
        <mxCell id="AsFMAXPC-iEJAhvBXa8g-135" value="" style="endArrow=none;html=1;rounded=0;entryX=1;entryY=0;entryDx=0;entryDy=0;exitX=0.5;exitY=1;exitDx=0;exitDy=0;" parent="1" source="AsFMAXPC-iEJAhvBXa8g-131" target="AsFMAXPC-iEJAhvBXa8g-132" edge="1">
          <mxGeometry width="50" height="50" relative="1" as="geometry">
            <mxPoint x="1078" y="464" as="sourcePoint" />
            <mxPoint x="1178" y="439" as="targetPoint" />
          </mxGeometry>
        </mxCell>
        <mxCell id="AsFMAXPC-iEJAhvBXa8g-136" value="" style="endArrow=none;html=1;rounded=0;entryX=0.5;entryY=0;entryDx=0;entryDy=0;exitX=0.5;exitY=1;exitDx=0;exitDy=0;" parent="1" source="AsFMAXPC-iEJAhvBXa8g-131" target="AsFMAXPC-iEJAhvBXa8g-134" edge="1">
          <mxGeometry width="50" height="50" relative="1" as="geometry">
            <mxPoint x="1088" y="474" as="sourcePoint" />
            <mxPoint x="1188" y="449" as="targetPoint" />
          </mxGeometry>
        </mxCell>
        <mxCell id="AsFMAXPC-iEJAhvBXa8g-137" value="" style="endArrow=none;html=1;rounded=0;entryX=0;entryY=0;entryDx=0;entryDy=0;exitX=0.5;exitY=1;exitDx=0;exitDy=0;" parent="1" source="AsFMAXPC-iEJAhvBXa8g-131" target="AsFMAXPC-iEJAhvBXa8g-133" edge="1">
          <mxGeometry width="50" height="50" relative="1" as="geometry">
            <mxPoint x="878" y="619" as="sourcePoint" />
            <mxPoint x="1198" y="459" as="targetPoint" />
          </mxGeometry>
        </mxCell>
        <mxCell id="AsFMAXPC-iEJAhvBXa8g-138" value="bonus" style="ellipse;whiteSpace=wrap;html=1;" parent="1" vertex="1">
          <mxGeometry x="830" y="675" width="109" height="50" as="geometry" />
        </mxCell>
        <mxCell id="AsFMAXPC-iEJAhvBXa8g-139" value="" style="endArrow=none;html=1;rounded=0;entryX=0.5;entryY=0;entryDx=0;entryDy=0;exitX=0.5;exitY=1;exitDx=0;exitDy=0;" parent="1" source="AsFMAXPC-iEJAhvBXa8g-131" target="AsFMAXPC-iEJAhvBXa8g-138" edge="1">
          <mxGeometry width="50" height="50" relative="1" as="geometry">
            <mxPoint x="863" y="599" as="sourcePoint" />
            <mxPoint x="943" y="646" as="targetPoint" />
          </mxGeometry>
        </mxCell>
        <mxCell id="AsFMAXPC-iEJAhvBXa8g-140" value="" style="endArrow=none;html=1;rounded=0;exitX=0.5;exitY=1;exitDx=0;exitDy=0;entryX=0;entryY=0.5;entryDx=0;entryDy=0;" parent="1" source="AsFMAXPC-iEJAhvBXa8g-129" target="AsFMAXPC-iEJAhvBXa8g-131" edge="1">
          <mxGeometry width="50" height="50" relative="1" as="geometry">
            <mxPoint x="469" y="750" as="sourcePoint" />
            <mxPoint x="680" y="940" as="targetPoint" />
            <Array as="points">
              <mxPoint x="600" y="760" />
              <mxPoint x="650" y="760" />
              <mxPoint x="650" y="580" />
            </Array>
          </mxGeometry>
        </mxCell>
        <mxCell id="AsFMAXPC-iEJAhvBXa8g-141" value="" style="endArrow=none;html=1;rounded=0;exitX=0;exitY=0.5;exitDx=0;exitDy=0;entryX=1;entryY=0.5;entryDx=0;entryDy=0;" parent="1" source="AsFMAXPC-iEJAhvBXa8g-129" target="AsFMAXPC-iEJAhvBXa8g-56" edge="1">
          <mxGeometry width="50" height="50" relative="1" as="geometry">
            <mxPoint x="610" y="760" as="sourcePoint" />
            <mxPoint x="530" y="820" as="targetPoint" />
            <Array as="points">
              <mxPoint x="530" y="710" />
              <mxPoint x="530" y="770" />
              <mxPoint x="530" y="780" />
            </Array>
          </mxGeometry>
        </mxCell>
        <mxCell id="VT1fRiK670eZDrI_wkgf-2" value="" style="endArrow=none;html=1;rounded=0;exitX=0.5;exitY=0;exitDx=0;exitDy=0;entryX=0.5;entryY=0;entryDx=0;entryDy=0;jumpSize=8;jumpStyle=arc;" parent="1" source="AsFMAXPC-iEJAhvBXa8g-129" target="AsFMAXPC-iEJAhvBXa8g-3" edge="1">
          <mxGeometry width="50" height="50" relative="1" as="geometry">
            <mxPoint x="790" y="730" as="sourcePoint" />
            <mxPoint x="390" y="590" as="targetPoint" />
            <Array as="points">
              <mxPoint x="600" y="580" />
              <mxPoint x="310" y="580" />
              <mxPoint x="310" y="280" />
              <mxPoint x="260" y="280" />
              <mxPoint x="260" y="250" />
              <mxPoint x="260" y="210" />
              <mxPoint x="140" y="210" />
              <mxPoint x="19" y="210" />
            </Array>
          </mxGeometry>
        </mxCell>
        <mxCell id="98ks3WX-XsvPrQOC3uak-1" value="" style="endArrow=none;html=1;rounded=0;entryX=0;entryY=0.5;entryDx=0;entryDy=0;exitX=0.5;exitY=0;exitDx=0;exitDy=0;jumpStyle=arc;jumpSize=8;" edge="1" parent="1" source="AsFMAXPC-iEJAhvBXa8g-116" target="AsFMAXPC-iEJAhvBXa8g-89">
          <mxGeometry width="50" height="50" relative="1" as="geometry">
            <mxPoint x="810" y="430" as="sourcePoint" />
            <mxPoint x="470" y="320" as="targetPoint" />
            <Array as="points">
              <mxPoint x="100" y="660" />
              <mxPoint x="290" y="660" />
              <mxPoint x="290" y="310" />
            </Array>
          </mxGeometry>
        </mxCell>
        <mxCell id="98ks3WX-XsvPrQOC3uak-2" value="lv_date" style="ellipse;whiteSpace=wrap;html=1;" vertex="1" parent="1">
          <mxGeometry x="470" y="860" width="109" height="50" as="geometry" />
        </mxCell>
        <mxCell id="98ks3WX-XsvPrQOC3uak-3" value="" style="endArrow=none;html=1;rounded=0;entryX=0.5;entryY=0;entryDx=0;entryDy=0;" edge="1" parent="1" target="98ks3WX-XsvPrQOC3uak-2">
          <mxGeometry width="50" height="50" relative="1" as="geometry">
            <mxPoint x="460" y="800" as="sourcePoint" />
            <mxPoint x="546" y="837" as="targetPoint" />
          </mxGeometry>
        </mxCell>
        <mxCell id="AsFMAXPC-iEJAhvBXa8g-85" value="hr_uname" style="ellipse;whiteSpace=wrap;html=1;" parent="1" vertex="1">
          <mxGeometry x="765" y="150" width="109" height="50" as="geometry" />
        </mxCell>
        <mxCell id="98ks3WX-XsvPrQOC3uak-8" value="" style="endArrow=none;html=1;rounded=0;exitX=1;exitY=0.25;exitDx=0;exitDy=0;entryX=0;entryY=0.5;entryDx=0;entryDy=0;jumpSize=8;jumpStyle=arc;" edge="1" parent="1" source="AsFMAXPC-iEJAhvBXa8g-116" target="AsFMAXPC-iEJAhvBXa8g-100">
          <mxGeometry width="50" height="50" relative="1" as="geometry">
            <mxPoint x="110" y="730" as="sourcePoint" />
            <mxPoint x="270" y="690" as="targetPoint" />
            <Array as="points">
              <mxPoint x="270" y="690" />
              <mxPoint x="270" y="620" />
              <mxPoint x="690" y="620" />
              <mxPoint x="690" y="470" />
            </Array>
          </mxGeometry>
        </mxCell>
        <mxCell id="98ks3WX-XsvPrQOC3uak-9" value="" style="endArrow=none;html=1;rounded=0;exitX=1;exitY=0.5;exitDx=0;exitDy=0;entryX=0.673;entryY=-0.008;entryDx=0;entryDy=0;entryPerimeter=0;jumpSize=8;jumpStyle=arc;" edge="1" parent="1" source="AsFMAXPC-iEJAhvBXa8g-100" target="AsFMAXPC-iEJAhvBXa8g-3">
          <mxGeometry width="50" height="50" relative="1" as="geometry">
            <mxPoint x="180" y="538" as="sourcePoint" />
            <mxPoint x="50" y="230" as="targetPoint" />
            <Array as="points">
              <mxPoint x="800" y="470" />
              <mxPoint x="800" y="530" />
              <mxPoint x="720" y="530" />
              <mxPoint x="720" y="590" />
              <mxPoint x="340" y="590" />
              <mxPoint x="340" y="470" />
              <mxPoint x="250" y="470" />
              <mxPoint x="250" y="200" />
              <mxPoint x="40" y="200" />
            </Array>
          </mxGeometry>
        </mxCell>
        <mxCell id="98ks3WX-XsvPrQOC3uak-10" value="add" style="rhombus;whiteSpace=wrap;html=1;" vertex="1" parent="1">
          <mxGeometry x="100" y="100" width="80" height="80" as="geometry" />
        </mxCell>
        <mxCell id="98ks3WX-XsvPrQOC3uak-12" value="" style="endArrow=classic;html=1;rounded=0;entryX=0;entryY=0.5;entryDx=0;entryDy=0;" edge="1" parent="1" source="98ks3WX-XsvPrQOC3uak-10" target="AsFMAXPC-iEJAhvBXa8g-5">
          <mxGeometry width="50" height="50" relative="1" as="geometry">
            <mxPoint x="430" y="280" as="sourcePoint" />
            <mxPoint x="430" y="90" as="targetPoint" />
            <Array as="points">
              <mxPoint x="140" y="60" />
            </Array>
          </mxGeometry>
        </mxCell>
        <mxCell id="98ks3WX-XsvPrQOC3uak-13" value="" style="endArrow=none;html=1;rounded=0;entryX=0.5;entryY=1;entryDx=0;entryDy=0;exitX=0;exitY=0.5;exitDx=0;exitDy=0;" edge="1" parent="1" source="AsFMAXPC-iEJAhvBXa8g-43" target="98ks3WX-XsvPrQOC3uak-10">
          <mxGeometry width="50" height="50" relative="1" as="geometry">
            <mxPoint x="-10" y="460" as="sourcePoint" />
            <mxPoint x="430" y="90" as="targetPoint" />
            <Array as="points">
              <mxPoint x="-140" y="457" />
              <mxPoint x="-140" y="190" />
              <mxPoint x="140" y="190" />
            </Array>
          </mxGeometry>
        </mxCell>
        <mxCell id="98ks3WX-XsvPrQOC3uak-14" value="" style="endArrow=none;html=1;rounded=0;entryX=0.661;entryY=-0.01;entryDx=0;entryDy=0;entryPerimeter=0;jumpStyle=arc;jumpSize=8;exitX=1;exitY=0.5;exitDx=0;exitDy=0;" edge="1" parent="1" source="AsFMAXPC-iEJAhvBXa8g-103" target="AsFMAXPC-iEJAhvBXa8g-116">
          <mxGeometry width="50" height="50" relative="1" as="geometry">
            <mxPoint x="230" y="260" as="sourcePoint" />
            <mxPoint x="80" y="447" as="targetPoint" />
            <Array as="points">
              <mxPoint x="270" y="290" />
              <mxPoint x="270" y="500" />
              <mxPoint x="270" y="560" />
              <mxPoint x="270" y="600" />
              <mxPoint x="120" y="600" />
            </Array>
          </mxGeometry>
        </mxCell>
        <mxCell id="98ks3WX-XsvPrQOC3uak-15" value="" style="endArrow=none;html=1;rounded=0;entryX=0;entryY=0.5;entryDx=0;entryDy=0;exitX=0.839;exitY=-0.008;exitDx=0;exitDy=0;exitPerimeter=0;jumpStyle=arc;jumpSize=8;" edge="1" parent="1" source="AsFMAXPC-iEJAhvBXa8g-3" target="AsFMAXPC-iEJAhvBXa8g-126">
          <mxGeometry width="50" height="50" relative="1" as="geometry">
            <mxPoint x="110" y="730" as="sourcePoint" />
            <mxPoint x="110" y="820" as="targetPoint" />
            <Array as="points">
              <mxPoint x="60" y="220" />
              <mxPoint x="290" y="220" />
              <mxPoint x="290" y="300" />
              <mxPoint x="370" y="300" />
              <mxPoint x="370" y="700" />
            </Array>
          </mxGeometry>
        </mxCell>
        <mxCell id="98ks3WX-XsvPrQOC3uak-16" value="view" style="rhombus;whiteSpace=wrap;html=1;" vertex="1" parent="1">
          <mxGeometry x="410" y="400" width="80" height="80" as="geometry" />
        </mxCell>
        <mxCell id="98ks3WX-XsvPrQOC3uak-17" value="" style="endArrow=classic;html=1;rounded=0;entryX=1;entryY=0.5;entryDx=0;entryDy=0;exitX=0.5;exitY=0;exitDx=0;exitDy=0;jumpStyle=arc;jumpSize=8;" edge="1" parent="1" source="98ks3WX-XsvPrQOC3uak-16" target="AsFMAXPC-iEJAhvBXa8g-5">
          <mxGeometry width="50" height="50" relative="1" as="geometry">
            <mxPoint x="430" y="280" as="sourcePoint" />
            <mxPoint x="430" y="90" as="targetPoint" />
            <Array as="points">
              <mxPoint x="450" y="390" />
              <mxPoint x="650" y="390" />
              <mxPoint x="650" y="70" />
              <mxPoint x="500" y="70" />
              <mxPoint x="500" y="60" />
            </Array>
          </mxGeometry>
        </mxCell>
        <mxCell id="98ks3WX-XsvPrQOC3uak-18" value="" style="endArrow=none;html=1;rounded=0;exitX=0.5;exitY=1;exitDx=0;exitDy=0;entryX=0.351;entryY=-0.009;entryDx=0;entryDy=0;entryPerimeter=0;" edge="1" parent="1" source="98ks3WX-XsvPrQOC3uak-16" target="AsFMAXPC-iEJAhvBXa8g-56">
          <mxGeometry width="50" height="50" relative="1" as="geometry">
            <mxPoint x="870" y="450" as="sourcePoint" />
            <mxPoint x="806" y="521" as="targetPoint" />
            <Array as="points">
              <mxPoint x="450" y="490" />
              <mxPoint x="410" y="490" />
              <mxPoint x="410" y="700" />
              <mxPoint x="410" y="750" />
              <mxPoint x="440" y="750" />
            </Array>
          </mxGeometry>
        </mxCell>
        <mxCell id="98ks3WX-XsvPrQOC3uak-19" value="" style="endArrow=none;html=1;rounded=0;exitX=0;exitY=0.5;exitDx=0;exitDy=0;entryX=0.825;entryY=0;entryDx=0;entryDy=0;entryPerimeter=0;jumpSize=8;jumpStyle=arc;" edge="1" parent="1" source="98ks3WX-XsvPrQOC3uak-16" target="AsFMAXPC-iEJAhvBXa8g-116">
          <mxGeometry width="50" height="50" relative="1" as="geometry">
            <mxPoint x="460" y="490" as="sourcePoint" />
            <mxPoint x="150" y="670" as="targetPoint" />
            <Array as="points">
              <mxPoint x="380" y="440" />
              <mxPoint x="380" y="480" />
              <mxPoint x="280" y="480" />
              <mxPoint x="280" y="610" />
              <mxPoint x="140" y="610" />
            </Array>
          </mxGeometry>
        </mxCell>
        <mxCell id="98ks3WX-XsvPrQOC3uak-20" value="view" style="rhombus;whiteSpace=wrap;html=1;" vertex="1" parent="1">
          <mxGeometry x="520" y="400" width="80" height="80" as="geometry" />
        </mxCell>
        <mxCell id="98ks3WX-XsvPrQOC3uak-21" value="" style="endArrow=none;html=1;rounded=0;exitX=0.5;exitY=1;exitDx=0;exitDy=0;entryX=0.673;entryY=-0.016;entryDx=0;entryDy=0;entryPerimeter=0;jumpStyle=arc;jumpSize=8;" edge="1" parent="1" source="98ks3WX-XsvPrQOC3uak-20" target="AsFMAXPC-iEJAhvBXa8g-56">
          <mxGeometry width="50" height="50" relative="1" as="geometry">
            <mxPoint x="610" y="490" as="sourcePoint" />
            <mxPoint x="480" y="790" as="targetPoint" />
            <Array as="points">
              <mxPoint x="560" y="640" />
              <mxPoint x="520" y="640" />
              <mxPoint x="520" y="750" />
              <mxPoint x="480" y="750" />
            </Array>
          </mxGeometry>
        </mxCell>
        <mxCell id="98ks3WX-XsvPrQOC3uak-22" value="" style="endArrow=classic;html=1;rounded=0;entryX=1;entryY=0.25;entryDx=0;entryDy=0;exitX=0.5;exitY=0;exitDx=0;exitDy=0;jumpStyle=arc;jumpSize=8;" edge="1" parent="1" source="98ks3WX-XsvPrQOC3uak-20" target="AsFMAXPC-iEJAhvBXa8g-3">
          <mxGeometry width="50" height="50" relative="1" as="geometry">
            <mxPoint x="510" y="370" as="sourcePoint" />
            <mxPoint x="80" y="250" as="targetPoint" />
            <Array as="points">
              <mxPoint x="560" y="380" />
              <mxPoint x="280" y="380" />
              <mxPoint x="280" y="230" />
              <mxPoint x="120" y="230" />
              <mxPoint x="120" y="250" />
            </Array>
          </mxGeometry>
        </mxCell>
        <mxCell id="98ks3WX-XsvPrQOC3uak-24" value="" style="endArrow=none;html=1;rounded=0;exitX=0;exitY=0.5;exitDx=0;exitDy=0;entryX=0.335;entryY=-0.023;entryDx=0;entryDy=0;entryPerimeter=0;jumpStyle=arc;jumpSize=8;" edge="1" parent="1" source="98ks3WX-XsvPrQOC3uak-20" target="AsFMAXPC-iEJAhvBXa8g-116">
          <mxGeometry width="50" height="50" relative="1" as="geometry">
            <mxPoint x="870" y="450" as="sourcePoint" />
            <mxPoint x="80" y="630" as="targetPoint" />
            <Array as="points">
              <mxPoint x="510" y="440" />
              <mxPoint x="510" y="630" />
              <mxPoint x="80" y="630" />
            </Array>
          </mxGeometry>
        </mxCell>
        <mxCell id="98ks3WX-XsvPrQOC3uak-25" value="" style="endArrow=classic;html=1;rounded=0;entryX=0.339;entryY=-0.017;entryDx=0;entryDy=0;entryPerimeter=0;exitX=1;exitY=0.5;exitDx=0;exitDy=0;jumpStyle=arc;jumpSize=8;" edge="1" parent="1" source="98ks3WX-XsvPrQOC3uak-20" target="AsFMAXPC-iEJAhvBXa8g-82">
          <mxGeometry width="50" height="50" relative="1" as="geometry">
            <mxPoint x="650" y="430" as="sourcePoint" />
            <mxPoint x="430" y="90" as="targetPoint" />
            <Array as="points">
              <mxPoint x="660" y="440" />
              <mxPoint x="660" y="180" />
              <mxPoint x="660" y="30" />
              <mxPoint x="800" y="30" />
            </Array>
          </mxGeometry>
        </mxCell>
      </root>
    </mxGraphModel>
  </diagram>
</mxfile>
